HIERARCHY
ROOT joint_0
{
	OFFSET 0.000000 0.000000 0.000000
	CHANNELS 6 Xposition Yposition Zposition Zrotation Yrotation Xrotation 
	JOINT joint_1
	{
		OFFSET 0.587158 0.057678 95.682007
		CHANNELS 3 Zrotation Yrotation Xrotation
		JOINT joint_2
		{
			OFFSET -7.116699 -0.219910 87.157959
			CHANNELS 3 Zrotation Yrotation Xrotation
			JOINT joint_3
			{
				OFFSET -5.892822 -0.290222 87.151001
				CHANNELS 3 Zrotation Yrotation Xrotation
				JOINT joint_4
				{
					OFFSET 5.544678 -0.099609 123.768066
					CHANNELS 3 Zrotation Yrotation Xrotation
					JOINT joint_5
					{
						OFFSET 41.981201 4.519775 84.257935
						CHANNELS 3 Zrotation Yrotation Xrotation
						End Site
						{
							OFFSET 0.000000 0.000000 0.000000
						}
					}
				}
				JOINT joint_6
				{
					OFFSET 3.940918 -26.976501 69.308105
					CHANNELS 3 Zrotation Yrotation Xrotation
					JOINT joint_7
					{
						OFFSET 4.776123 -152.592468 -16.842041
						CHANNELS 3 Zrotation Yrotation Xrotation
						JOINT joint_8
						{
							OFFSET 54.421875 -30.424072 -248.864014
							CHANNELS 3 Zrotation Yrotation Xrotation
							JOINT joint_9
							{
								OFFSET 42.120117 -33.387878 -236.524963
								CHANNELS 3 Zrotation Yrotation Xrotation
								End Site
								{
									OFFSET 0.000000 0.000000 0.000000
								}
							}
						}
					}
				}
				JOINT joint_10
				{
					OFFSET 2.312012 26.904114 69.425049
					CHANNELS 3 Zrotation Yrotation Xrotation
					JOINT joint_11
					{
						OFFSET 0.971436 152.197815 -20.626953
						CHANNELS 3 Zrotation Yrotation Xrotation
						JOINT joint_12
						{
							OFFSET 49.954102 28.991455 -249.970093
							CHANNELS 3 Zrotation Yrotation Xrotation
							JOINT joint_13
							{
								OFFSET 48.146973 19.598389 -236.919922
								CHANNELS 3 Zrotation Yrotation Xrotation
								End Site
								{
									OFFSET 0.000000 0.000000 0.000000
								}
							}
						}
					}
				}
			}
		}
	}
	JOINT joint_14
	{
		OFFSET 16.305664 -89.442932 -108.224976
		CHANNELS 3 Zrotation Yrotation Xrotation
		JOINT joint_15
		{
			OFFSET -22.282471 13.437134 -412.904968
			CHANNELS 3 Zrotation Yrotation Xrotation
			JOINT joint_16
			{
				OFFSET -45.426025 14.484802 -445.892029
				CHANNELS 3 Zrotation Yrotation Xrotation
				JOINT joint_17
				{
					OFFSET 173.389404 -9.944031 -76.473001
					CHANNELS 3 Zrotation Yrotation Xrotation
					End Site
					{
						OFFSET 0.000000 0.000000 0.000000
					}
				}
			}
		}
	}
	JOINT joint_18
	{
		OFFSET 13.392822 89.408875 -108.653992
		CHANNELS 3 Zrotation Yrotation Xrotation
		JOINT joint_19
		{
			OFFSET -29.032959 24.483521 -411.977966
			CHANNELS 3 Zrotation Yrotation Xrotation
			JOINT joint_20
			{
				OFFSET -30.530029 28.986328 -446.453018
				CHANNELS 3 Zrotation Yrotation Xrotation
				JOINT joint_21
				{
					OFFSET 170.330078 33.400757 -76.698997
					CHANNELS 3 Zrotation Yrotation Xrotation
					End Site
					{
						OFFSET 0.000000 0.000000 0.000000
					}
				}
			}
		}
	}
}
MOTION
Frames: 13
Frame Time: 0.016667
-1822.494507 826.406921 1062.977051 11.596816 2.953333 1.126060 -0.758402 -3.053789 -1.435876 -0.689774 0.509784 0.306002 -0.735539 -0.533680 -0.179436 -0.399764 1.405567 0.641363 0.000000 0.000000 0.000000 0.748923 1.591409 0.124424 -0.027311 1.687191 0.434085 0.343142 -2.972158 -0.446667 0.000000 0.000000 0.000000 1.222170 1.284871 -0.222837 0.292623 1.149498 0.818066 -0.284865 -1.826455 -0.498953 0.000000 0.000000 0.000000 -7.466130 -4.022440 -0.161907 -7.178767 3.958747 -1.442297 -7.222809 -2.320959 -3.302855 0.000000 0.000000 0.000000 10.303566 -5.971437 -3.166708 10.504895 1.302615 1.328760 10.403452 1.478403 4.429927 0.000000 0.000000 0.000000 
-1822.937988 826.346863 1062.957031 11.611458 2.931309 1.124571 -0.754002 -3.035057 -1.433845 -0.685073 0.505073 0.306912 -0.730833 -0.529117 -0.180040 -0.404849 1.419168 0.649936 0.000000 0.000000 0.000000 0.751873 1.589846 0.119378 -0.029222 1.685997 0.424493 0.350147 -3.003960 -0.431862 0.000000 0.000000 0.000000 1.217979 1.282884 -0.223473 0.292043 1.147999 0.816107 -0.291397 -1.855145 -0.515345 0.000000 0.000000 0.000000 -7.474207 -4.064891 -0.155232 -7.181735 4.032457 -1.458784 -7.230812 -2.347082 -3.307752 0.000000 0.000000 0.000000 10.299019 -5.987188 -3.172608 10.501887 1.316842 1.344313 10.404384 1.507742 4.424754 0.000000 0.000000 0.000000 
-1823.376343 826.287415 1062.932983 11.619408 2.894590 1.119015 -0.748411 -3.008330 -1.425829 -0.679680 0.501167 0.303655 -0.724966 -0.523028 -0.178272 -0.413152 1.440146 0.664103 0.000000 0.000000 0.000000 0.767699 1.588694 0.111971 -0.029756 1.686705 0.419671 0.351169 -3.016324 -0.435976 0.000000 0.000000 0.000000 1.221258 1.282696 -0.225290 0.291943 1.147315 0.816969 -0.298104 -1.876578 -0.536152 0.000000 0.000000 0.000000 -7.481070 -4.101148 -0.150690 -7.183265 4.126304 -1.469394 -7.237709 -2.376668 -3.312334 0.000000 0.000000 0.000000 10.295247 -5.995345 -3.170777 10.500139 1.346818 1.363282 10.406604 1.537740 4.419956 0.000000 0.000000 0.000000 
-1823.822144 826.221436 1062.904053 11.625378 2.846802 1.110387 -0.742260 -2.972493 -1.414764 -0.673723 0.495869 0.300441 -0.718490 -0.516757 -0.176348 -0.423178 1.466800 0.681056 0.000000 0.000000 0.000000 0.790761 1.588762 0.101487 -0.029689 1.689533 0.417361 0.348887 -3.017432 -0.450194 0.000000 0.000000 0.000000 1.228945 1.283620 -0.227768 0.292097 1.147161 0.819435 -0.304504 -1.892762 -0.558015 0.000000 0.000000 0.000000 -7.488471 -4.132952 -0.145215 -7.184861 4.234081 -1.478905 -7.245163 -2.408245 -3.317246 0.000000 0.000000 0.000000 10.290197 -6.003931 -3.162493 10.498664 1.398050 1.386157 10.408959 1.566748 4.415296 0.000000 0.000000 0.000000 
-1824.298950 826.117371 1062.871948 11.640618 2.789025 1.101762 -0.735356 -2.929129 -1.408737 -0.666097 0.492877 0.302773 -0.710984 -0.510511 -0.177296 -0.433128 1.495147 0.697658 0.000000 0.000000 0.000000 0.807636 1.592755 0.088276 -0.030141 1.695739 0.415250 0.348702 -3.025208 -0.457817 0.000000 0.000000 0.000000 1.228606 1.282530 -0.232857 0.293452 1.146150 0.828669 -0.309589 -1.906849 -0.574369 0.000000 0.000000 0.000000 -7.500133 -4.158785 -0.134147 -7.189868 4.346109 -1.496805 -7.256761 -2.433745 -3.323591 0.000000 0.000000 0.000000 10.277654 -6.037368 -3.150540 10.495403 1.507663 1.421783 10.409313 1.589417 4.410598 0.000000 0.000000 0.000000 
-1824.812378 825.956726 1062.839966 11.671200 2.721632 1.095687 -0.740798 -2.888278 -1.401809 -0.669631 0.497586 0.321978 -0.717126 -0.510921 -0.192602 -0.429050 1.520897 0.685492 0.000000 0.000000 0.000000 0.504444 1.503090 0.151129 -0.013683 1.569437 0.424739 0.318135 -2.845656 -0.492400 0.000000 0.000000 0.000000 1.248366 1.270329 -0.237747 0.294702 1.131220 0.842912 -0.310332 -1.878584 -0.592568 0.000000 0.000000 0.000000 -7.517600 -4.176221 -0.117525 -7.200047 4.455203 -1.525535 -7.273958 -2.445708 -3.331579 0.000000 0.000000 0.000000 10.253087 -6.107235 -3.140689 10.487162 1.693074 1.481056 10.406071 1.606243 4.404811 0.000000 0.000000 0.000000 
-1825.356079 825.759155 1062.806030 11.710729 2.644695 1.088848 -0.745945 -2.840965 -1.398520 -0.672038 0.504286 0.347869 -0.723023 -0.510171 -0.213219 -0.424876 1.549123 0.672847 0.000000 0.000000 0.000000 0.198139 1.417585 0.212356 0.002031 1.447090 0.435020 0.289441 -2.673670 -0.521194 0.000000 0.000000 0.000000 1.262400 1.256201 -0.244844 0.297187 1.115212 0.864245 -0.309756 -1.848433 -0.605136 0.000000 0.000000 0.000000 -7.539415 -4.187913 -0.094608 -7.213743 4.568115 -1.562502 -7.295361 -2.450699 -3.340967 0.000000 0.000000 0.000000 10.220672 -6.202279 -3.126393 10.476935 1.936586 1.552542 10.401836 1.618278 4.399108 0.000000 0.000000 0.000000 
-1825.950928 825.557129 1062.755005 11.757408 2.552960 1.074590 -0.713824 -2.736062 -1.412130 -0.637915 0.480697 0.341253 -0.687406 -0.487110 -0.209302 -0.460159 1.589268 0.740718 0.000000 0.000000 0.000000 0.819081 1.630601 0.035618 -0.035840 1.736692 0.408070 0.366277 -3.105601 -0.422917 0.000000 0.000000 0.000000 1.183840 1.264155 -0.261142 0.305306 1.134408 0.901621 -0.316158 -1.938075 -0.585656 0.000000 0.000000 0.000000 -7.565618 -4.192955 -0.060550 -7.230227 4.695422 -1.608635 -7.321140 -2.462972 -3.352619 0.000000 0.000000 0.000000 10.184879 -6.308515 -3.092164 10.468973 2.224278 1.615932 10.398449 1.619221 4.395868 0.000000 0.000000 0.000000 
-1826.793213 825.362061 1062.696045 11.805207 2.428082 1.048863 -0.631396 -2.574316 -1.474564 -0.552410 0.393155 0.294937 -0.593611 -0.415959 -0.176828 -0.548585 1.700365 0.915396 0.000000 0.000000 0.000000 3.460311 2.461210 -0.550492 -0.214543 2.887583 0.254418 0.647372 -4.803957 -0.075160 0.000000 0.000000 0.000000 1.063664 1.287228 -0.340214 0.323047 1.174583 0.996905 -0.323632 -2.145201 -0.496466 0.000000 0.000000 0.000000 -7.595635 -4.187126 -0.011046 -7.248015 4.844104 -1.671414 -7.350951 -2.482190 -3.366332 0.000000 0.000000 0.000000 10.149227 -6.418197 -3.032065 10.466810 2.558458 1.667199 10.399989 1.616179 4.395774 0.000000 0.000000 0.000000 
-1827.686768 825.163391 1062.619995 11.860033 2.290593 1.015266 -0.514061 -2.360288 -1.550832 -0.427537 0.276535 0.286083 -0.464379 -0.315395 -0.170007 -0.621873 1.810870 1.069553 0.000000 0.000000 0.000000 7.048620 3.640996 -1.292275 -0.499418 4.506258 0.168955 0.958847 -7.210481 0.206930 0.000000 0.000000 0.000000 0.855057 1.330419 -0.455338 0.348707 1.247268 1.147779 -0.348140 -2.472810 -0.407204 0.000000 0.000000 0.000000 -7.630118 -4.177511 0.050097 -7.268579 5.008070 -1.743269 -7.385181 -2.508740 -3.382309 0.000000 0.000000 0.000000 10.109498 -6.541501 -2.951956 10.466497 2.936839 1.710033 10.403581 1.603593 4.398328 0.000000 0.000000 0.000000 
-1828.056763 824.959839 1062.496948 11.930893 2.196629 0.976669 -0.362613 -2.058987 -1.554608 -0.269488 0.206828 0.319689 -0.308636 -0.233043 -0.191422 -0.671641 1.754705 1.188845 0.000000 0.000000 0.000000 9.227384 4.505848 -1.896138 -0.689082 5.655573 0.422712 1.091204 -8.929053 0.137037 0.000000 0.000000 0.000000 0.317037 1.437904 -0.463165 0.371696 1.430417 1.258594 -0.421580 -3.050561 -0.410383 0.000000 0.000000 0.000000 -7.670161 -4.184227 0.119062 -7.294464 5.178751 -1.803295 -7.424024 -2.552333 -3.401236 0.000000 0.000000 0.000000 10.060273 -6.693453 -2.851362 10.463509 3.337592 1.733199 10.402131 1.557024 4.404710 0.000000 0.000000 0.000000 
-1827.573853 824.764893 1062.154053 11.975706 2.119415 0.924426 -0.175375 -1.550207 -1.401121 -0.085067 0.203639 0.328079 -0.125478 -0.171590 -0.204407 -0.727032 1.407255 1.332501 0.000000 0.000000 0.000000 8.914441 4.721395 -2.404526 -0.546794 5.864016 1.251128 1.019338 -9.160370 -0.372968 0.000000 0.000000 0.000000 -0.757169 1.649240 -0.235345 0.374926 1.790601 1.194592 -0.535418 -3.953005 -0.443396 0.000000 0.000000 0.000000 -7.696855 -4.137088 0.200635 -7.309675 5.323066 -1.844132 -7.451093 -2.652095 -3.418269 0.000000 0.000000 0.000000 10.019539 -6.788632 -2.726048 10.461797 3.702631 1.757918 10.399897 1.443720 4.422784 0.000000 0.000000 0.000000 
-1826.568970 824.563538 1061.764038 12.037335 2.077635 0.866905 0.008748 -0.937170 -1.165990 0.092238 0.224778 0.311071 0.052829 -0.122577 -0.204710 -0.782479 0.901025 1.484836 0.000000 0.000000 0.000000 7.363156 4.601499 -2.834564 -0.248214 5.587477 2.275589 0.859627 -8.683601 -1.065975 0.000000 0.000000 0.000000 -2.027914 1.938287 0.117891 0.367264 2.254417 1.050754 -0.682908 -5.107206 -0.509366 0.000000 0.000000 0.000000 -7.728938 -4.096142 0.289268 -7.330412 5.472134 -1.872577 -7.482861 -2.768495 -3.438248 0.000000 0.000000 0.000000 9.969098 -6.902965 -2.577643 10.456849 4.088688 1.761912 10.391979 1.296309 4.444423 0.000000 0.000000 0.000000 
